<svg width="24" height="25" viewBox="0 0 24 25" fill="none" xmlns="http://www.w3.org/2000/svg">
<path d="M2.5 12.5C2.5 8.02165 2.5 5.78248 3.89124 4.39124C5.28249 3 7.52166 3 12 3C16.4783 3 18.7175 3 20.1088 4.39124C21.5 5.78248 21.5 8.02165 21.5 12.5C21.5 16.9784 21.5 19.2175 20.1088 20.6088C18.7175 22 16.4783 22 12 22C7.52166 22 5.28249 22 3.89124 20.6088C2.5 19.2175 2.5 16.9784 2.5 12.5Z" stroke="white" stroke-width="1.5"/>
<path d="M2.5 9.5H21.5" stroke="white" stroke-width="1.5" stroke-linejoin="round"/>
<path d="M6.99976 6.5H7.00874" stroke="white" stroke-width="2" stroke-linecap="round" stroke-linejoin="round"/>
<path d="M10.9998 6.5H11.0088" stroke="white" stroke-width="2" stroke-linecap="round" stroke-linejoin="round"/>
<path d="M17 17.5C17 14.7386 14.7614 12.5 12 12.5C9.23858 12.5 7 14.7386 7 17.5" stroke="white" stroke-width="1.5" stroke-linecap="round"/>
<path d="M12.7069 15.793L11.2927 17.2072" stroke="white" stroke-width="1.5" stroke-linecap="round" stroke-linejoin="round"/>
</svg>
