<svg width="1440" height="614" viewBox="0 0 1440 614" fill="none" xmlns="http://www.w3.org/2000/svg">
<path d="M-154.343 612.825L182.335 297.816C287.999 198.953 436.078 152.079 586.709 169.812L738.075 187.632C878.791 204.198 1017.76 164.41 1121.94 77.7224L1572.23 -296.922" stroke="#292929" stroke-dasharray="4 4"/>
<mask id="mask0_2065_158" style="mask-type:alpha" maskUnits="userSpaceOnUse" x="163" y="217" width="100" height="100">
<rect x="163" y="217" width="100" height="100" fill="#D9D9D9"/>
</mask>
<g mask="url(#mask0_2065_158)">
<path d="M-154.343 612.825L182.335 297.816C287.999 198.953 436.078 152.079 586.709 169.812L738.075 187.632C878.791 204.198 1017.76 164.41 1121.94 77.7224L1572.23 -296.922" stroke="url(#paint0_linear_2065_158)" stroke-dasharray="4 4"/>
</g>
<mask id="mask1_2065_158" style="mask-type:alpha" maskUnits="userSpaceOnUse" x="1032" y="65" width="110" height="81">
<rect x="1032" y="65" width="110" height="81" fill="#D9D9D9"/>
</mask>
<g mask="url(#mask1_2065_158)">
<path d="M-154.343 612.825L182.335 297.816C287.999 198.953 436.078 152.079 586.709 169.812L738.075 187.632C878.791 204.198 1017.76 164.41 1121.94 77.7224L1572.23 -296.922" stroke="url(#paint1_linear_2065_158)" stroke-dasharray="4 4"/>
</g>
<path d="M1610.8 612.825L1274.12 297.816C1168.46 198.953 1020.38 152.079 869.745 169.812L718.379 187.632C577.663 204.198 438.699 164.41 334.51 77.7224L-115.773 -296.922" stroke="#292929" stroke-dasharray="4 4"/>
<mask id="mask2_2065_158" style="mask-type:alpha" maskUnits="userSpaceOnUse" x="1179" y="226" width="101" height="101">
<rect x="1179.78" y="226.839" width="100" height="100" fill="#D9D9D9"/>
</mask>
<g mask="url(#mask2_2065_158)">
<path d="M1610.8 612.825L1274.12 297.816C1168.45 198.953 1020.38 152.079 869.744 169.812L718.378 187.632C577.662 204.198 438.698 164.41 334.509 77.7224L-115.774 -296.922" stroke="url(#paint2_linear_2065_158)" stroke-dasharray="4 4"/>
</g>
<mask id="mask3_2065_158" style="mask-type:alpha" maskUnits="userSpaceOnUse" x="321" y="37" width="106" height="100">
<rect x="321" y="37" width="106" height="100" fill="#D9D9D9"/>
</mask>
<g mask="url(#mask3_2065_158)">
<path d="M1610.8 612.825L1274.12 297.816C1168.45 198.953 1020.38 152.079 869.744 169.812L718.378 187.632C577.662 204.198 438.698 164.41 334.509 77.7224L-115.774 -296.922" stroke="url(#paint3_linear_2065_158)" stroke-dasharray="4 4"/>
</g>
<defs>
<linearGradient id="paint0_linear_2065_158" x1="165.733" y1="316.764" x2="261.299" y2="228.766" gradientUnits="userSpaceOnUse">
<stop stop-color="#0F0F0F"/>
<stop offset="1" stop-color="#E86100"/>
</linearGradient>
<linearGradient id="paint1_linear_2065_158" x1="1024" y1="146" x2="1129.37" y2="62.9908" gradientUnits="userSpaceOnUse">
<stop stop-color="#0F0F0F"/>
<stop offset="1" stop-color="#E86100"/>
</linearGradient>
<linearGradient id="paint2_linear_2065_158" x1="1285.24" y1="306.157" x2="1185.38" y2="223.268" gradientUnits="userSpaceOnUse">
<stop stop-color="#0F0F0F"/>
<stop offset="1" stop-color="#E86100"/>
</linearGradient>
<linearGradient id="paint3_linear_2065_158" x1="433.5" y1="141.5" x2="328.909" y2="62.039" gradientUnits="userSpaceOnUse">
<stop stop-color="#0F0F0F"/>
<stop offset="1" stop-color="#E86100"/>
</linearGradient>
</defs>
</svg>
