<svg width="131" height="35" viewBox="0 0 131 35" fill="none" xmlns="http://www.w3.org/2000/svg">
<rect y="14.5" width="6" height="6" rx="3" fill="#F16B41"/>
<path d="M20.7852 15H19.3761C19.2928 14.5947 19.147 14.2386 18.9386 13.9318C18.7341 13.625 18.4841 13.3674 18.1886 13.1591C17.897 12.947 17.5731 12.7879 17.217 12.6818C16.861 12.5758 16.4898 12.5227 16.1034 12.5227C15.3989 12.5227 14.7606 12.7008 14.1886 13.0568C13.6205 13.4129 13.1678 13.9375 12.8307 14.6307C12.4973 15.3239 12.3307 16.1742 12.3307 17.1818C12.3307 18.1894 12.4973 19.0398 12.8307 19.733C13.1678 20.4261 13.6205 20.9508 14.1886 21.3068C14.7606 21.6629 15.3989 21.8409 16.1034 21.8409C16.4898 21.8409 16.861 21.7879 17.217 21.6818C17.5731 21.5758 17.897 21.4186 18.1886 21.2102C18.4841 20.9981 18.7341 20.7386 18.9386 20.4318C19.147 20.1212 19.2928 19.7652 19.3761 19.3636H20.7852C20.6792 19.9583 20.486 20.4905 20.2057 20.9602C19.9254 21.4299 19.5769 21.8295 19.1602 22.1591C18.7436 22.4848 18.2758 22.733 17.7568 22.9034C17.2417 23.0739 16.6905 23.1591 16.1034 23.1591C15.111 23.1591 14.2284 22.9167 13.4557 22.4318C12.683 21.947 12.075 21.2576 11.6318 20.3636C11.1886 19.4697 10.967 18.4091 10.967 17.1818C10.967 15.9545 11.1886 14.8939 11.6318 14C12.075 13.1061 12.683 12.4167 13.4557 11.9318C14.2284 11.447 15.111 11.2045 16.1034 11.2045C16.6905 11.2045 17.2417 11.2898 17.7568 11.4602C18.2758 11.6307 18.7436 11.8807 19.1602 12.2102C19.5769 12.536 19.9254 12.9337 20.2057 13.4034C20.486 13.8693 20.6792 14.4015 20.7852 15ZM34.6404 17.1818C34.6404 18.4091 34.4188 19.4697 33.9756 20.3636C33.5324 21.2576 32.9245 21.947 32.1518 22.4318C31.379 22.9167 30.4965 23.1591 29.504 23.1591C28.5116 23.1591 27.629 22.9167 26.8563 22.4318C26.0836 21.947 25.4756 21.2576 25.0324 20.3636C24.5893 19.4697 24.3677 18.4091 24.3677 17.1818C24.3677 15.9545 24.5893 14.8939 25.0324 14C25.4756 13.1061 26.0836 12.4167 26.8563 11.9318C27.629 11.447 28.5116 11.2045 29.504 11.2045C30.4965 11.2045 31.379 11.447 32.1518 11.9318C32.9245 12.4167 33.5324 13.1061 33.9756 14C34.4188 14.8939 34.6404 15.9545 34.6404 17.1818ZM33.2768 17.1818C33.2768 16.1742 33.1082 15.3239 32.7711 14.6307C32.4377 13.9375 31.9851 13.4129 31.4131 13.0568C30.8449 12.7008 30.2086 12.5227 29.504 12.5227C28.7995 12.5227 28.1612 12.7008 27.5893 13.0568C27.0211 13.4129 26.5684 13.9375 26.2313 14.6307C25.898 15.3239 25.7313 16.1742 25.7313 17.1818C25.7313 18.1894 25.898 19.0398 26.2313 19.733C26.5684 20.4261 27.0211 20.9508 27.5893 21.3068C28.1612 21.6629 28.7995 21.8409 29.504 21.8409C30.2086 21.8409 30.8449 21.6629 31.4131 21.3068C31.9851 20.9508 32.4377 20.4261 32.7711 19.733C33.1082 19.0398 33.2768 18.1894 33.2768 17.1818ZM47.997 11.3636V23H46.6334L40.2924 13.8636H40.1788V23H38.7697V11.3636H40.1334L46.497 20.5227H46.6106V11.3636H47.997ZM58.9402 14.2727C58.872 13.697 58.5955 13.25 58.1107 12.9318C57.6258 12.6136 57.0311 12.4545 56.3266 12.4545C55.8114 12.4545 55.3607 12.5379 54.9743 12.7045C54.5917 12.8712 54.2925 13.1004 54.0766 13.392C53.8645 13.6837 53.7584 14.0152 53.7584 14.3864C53.7584 14.697 53.8323 14.964 53.98 15.1875C54.1315 15.4072 54.3247 15.5909 54.5595 15.7386C54.7944 15.8826 55.0406 16.0019 55.2982 16.0966C55.5558 16.1875 55.7925 16.2614 56.0084 16.3182L57.1902 16.6364C57.4933 16.7159 57.8304 16.8258 58.2016 16.9659C58.5766 17.1061 58.9345 17.2973 59.2755 17.5398C59.6202 17.7784 59.9042 18.0852 60.1277 18.4602C60.3512 18.8352 60.463 19.2955 60.463 19.8409C60.463 20.4697 60.2982 21.0379 59.9686 21.5455C59.6429 22.053 59.1656 22.4564 58.5368 22.7557C57.9118 23.0549 57.1523 23.2045 56.2584 23.2045C55.4251 23.2045 54.7035 23.0701 54.0936 22.8011C53.4876 22.5322 53.0103 22.1572 52.6618 21.6761C52.3171 21.1951 52.122 20.6364 52.0766 20H53.5311C53.569 20.4394 53.7167 20.803 53.9743 21.0909C54.2357 21.375 54.5652 21.5871 54.963 21.7273C55.3645 21.8636 55.7963 21.9318 56.2584 21.9318C56.7963 21.9318 57.2792 21.8447 57.7073 21.6705C58.1353 21.4924 58.4743 21.2462 58.7243 20.9318C58.9743 20.6136 59.0993 20.2424 59.0993 19.8182C59.0993 19.4318 58.9914 19.1174 58.7755 18.875C58.5595 18.6326 58.2755 18.4356 57.9232 18.2841C57.5709 18.1326 57.1902 18 56.7811 17.8864L55.3493 17.4773C54.4402 17.2159 53.7205 16.8428 53.1902 16.358C52.6599 15.8731 52.3948 15.2386 52.3948 14.4545C52.3948 13.803 52.5709 13.2348 52.9232 12.75C53.2792 12.2614 53.7565 11.8826 54.355 11.6136C54.9573 11.3409 55.6296 11.2045 56.372 11.2045C57.122 11.2045 57.7887 11.339 58.372 11.608C58.9554 11.8731 59.4175 12.2367 59.7584 12.6989C60.1031 13.161 60.2849 13.6856 60.3039 14.2727H58.9402ZM64.5397 23V11.3636H71.5624V12.6136H65.9488V16.5455H71.1988V17.7955H65.9488V21.75H71.6534V23H64.5397ZM80.0895 19.3636H81.6349L82.9304 21.0682L83.2713 21.5227L85.2031 24.0909H83.6577L82.3849 22.3864L82.0668 21.9545L80.0895 19.3636ZM85.6804 17.1818C85.6804 18.4091 85.4588 19.4697 85.0156 20.3636C84.5724 21.2576 83.9645 21.947 83.1918 22.4318C82.419 22.9167 81.5365 23.1591 80.544 23.1591C79.5516 23.1591 78.669 22.9167 77.8963 22.4318C77.1236 21.947 76.5156 21.2576 76.0724 20.3636C75.6293 19.4697 75.4077 18.4091 75.4077 17.1818C75.4077 15.9545 75.6293 14.8939 76.0724 14C76.5156 13.1061 77.1236 12.4167 77.8963 11.9318C78.669 11.447 79.5516 11.2045 80.544 11.2045C81.5365 11.2045 82.419 11.447 83.1918 11.9318C83.9645 12.4167 84.5724 13.1061 85.0156 14C85.4588 14.8939 85.6804 15.9545 85.6804 17.1818ZM84.3168 17.1818C84.3168 16.1742 84.1482 15.3239 83.8111 14.6307C83.4777 13.9375 83.0251 13.4129 82.4531 13.0568C81.8849 12.7008 81.2486 12.5227 80.544 12.5227C79.8395 12.5227 79.2012 12.7008 78.6293 13.0568C78.0611 13.4129 77.6084 13.9375 77.2713 14.6307C76.938 15.3239 76.7713 16.1742 76.7713 17.1818C76.7713 18.1894 76.938 19.0398 77.2713 19.733C77.6084 20.4261 78.0611 20.9508 78.6293 21.3068C79.2012 21.6629 79.8395 21.8409 80.544 21.8409C81.2486 21.8409 81.8849 21.6629 82.4531 21.3068C83.0251 20.9508 83.4777 20.4261 83.8111 19.733C84.1482 19.0398 84.3168 18.1894 84.3168 17.1818ZM97.4461 11.3636H98.8552V19.0682C98.8552 19.8636 98.6677 20.5739 98.2927 21.1989C97.9215 21.8201 97.3968 22.3106 96.7188 22.6705C96.0408 23.0265 95.2453 23.2045 94.3324 23.2045C93.4196 23.2045 92.6241 23.0265 91.9461 22.6705C91.268 22.3106 90.7415 21.8201 90.3665 21.1989C89.9953 20.5739 89.8097 19.8636 89.8097 19.0682V11.3636H91.2188V18.9545C91.2188 19.5227 91.3438 20.0284 91.5938 20.4716C91.8438 20.911 92.1999 21.2576 92.662 21.5114C93.1279 21.7614 93.6847 21.8864 94.3324 21.8864C94.9802 21.8864 95.537 21.7614 96.0029 21.5114C96.4688 21.2576 96.8249 20.911 97.0711 20.4716C97.3211 20.0284 97.4461 19.5227 97.4461 18.9545V11.3636ZM104.838 11.3636V23H103.429V11.3636H104.838ZM110.219 23.0909C109.939 23.0909 109.698 22.9905 109.497 22.7898C109.297 22.589 109.196 22.3485 109.196 22.0682C109.196 21.7879 109.297 21.5473 109.497 21.3466C109.698 21.1458 109.939 21.0455 110.219 21.0455C110.499 21.0455 110.74 21.1458 110.941 21.3466C111.141 21.5473 111.242 21.7879 111.242 22.0682C111.242 22.2538 111.194 22.4242 111.1 22.5795C111.009 22.7348 110.886 22.8598 110.73 22.9545C110.579 23.0455 110.408 23.0909 110.219 23.0909ZM116.067 23H114.59L118.862 11.3636H120.317L124.59 23H123.112L119.635 13.2045H119.544L116.067 23ZM116.612 18.4545H122.567V19.7045H116.612V18.4545ZM129.571 11.3636V23H128.162V11.3636H129.571Z" fill="#F5F5F5"/>
</svg>
