<svg width="130" height="36" viewBox="0 0 130 36" fill="none" xmlns="http://www.w3.org/2000/svg">
<rect y="15" width="6" height="6" rx="3" fill="#E44A19"/>
<path d="M15.9562 23.66C12.7082 23.66 10.8842 22.38 10.8842 19.884V19.788H13.2842V20.076C13.2842 21.068 13.7802 21.468 15.9562 21.468C17.8762 21.468 18.3242 21.18 18.3242 20.46C18.3242 19.804 17.9562 19.564 16.8522 19.372L13.8442 18.94C11.9242 18.636 10.7882 17.676 10.7882 15.932C10.7882 14.316 12.1002 12.62 15.7002 12.62C18.9962 12.62 20.5322 14.14 20.5322 16.396V16.492H18.1162V16.268C18.1162 15.244 17.5882 14.812 15.4602 14.812C13.7322 14.812 13.2042 15.148 13.2042 15.836C13.2042 16.46 13.5562 16.684 14.4522 16.844L17.4602 17.324C19.8602 17.708 20.7242 18.876 20.7242 20.348C20.7242 22.092 19.3642 23.66 15.9562 23.66ZM29.8136 23.5H27.3976V19.948L22.6456 12.78H25.6056L27.6536 15.916L28.5496 17.356H28.7256L29.6216 15.916L31.6696 12.78H34.6456L29.8136 19.964V23.5ZM39.2622 23.5H36.8622V12.78H39.4222L43.2622 17.852L44.7342 20.108H44.9102L44.7982 17.948V12.78H47.1982V23.5H44.6382L40.6862 18.38L39.3262 16.364H39.1662L39.2622 18.332V23.5ZM55.7196 23.66C52.1836 23.66 49.9916 21.484 49.9916 18.14C49.9916 14.796 52.1836 12.62 55.7196 12.62C59.0476 12.62 61.1916 14.284 61.1916 17.004V17.244H58.5196V17.004C58.5196 15.596 57.7196 14.924 55.7676 14.924C53.4156 14.924 52.5356 15.756 52.5356 18.14C52.5356 20.524 53.4156 21.356 55.7676 21.356C57.7196 21.356 58.5196 20.684 58.5196 19.276V19.036H61.1916V19.276C61.1916 21.996 59.0636 23.66 55.7196 23.66ZM66.3916 23.5H63.9916V12.78H66.3916V17.036H71.9916V12.78H74.3916V23.5H71.9916V19.196H66.3916V23.5ZM79.8391 23.5H77.4391V12.78H83.3591C85.9991 12.78 87.5031 13.948 87.5031 15.996C87.5031 17.74 86.4951 18.78 84.4791 18.972V19.1C85.4391 19.356 85.8071 19.868 86.2071 20.62L87.7591 23.5H84.9751L83.5031 20.716C83.0711 19.884 82.6711 19.612 81.4231 19.612H79.8391V23.5ZM79.8391 14.94V17.804H83.3431C84.4791 17.804 84.9911 17.484 84.9911 16.364C84.9911 15.308 84.4791 14.94 83.3431 14.94H79.8391ZM95.7972 23.66C92.2452 23.66 90.0372 21.484 90.0372 18.14C90.0372 14.796 92.2452 12.62 95.7972 12.62C99.4292 12.62 101.621 14.796 101.621 18.14C101.621 21.484 99.4292 23.66 95.7972 23.66ZM95.7972 21.356C98.1492 21.356 99.0612 20.524 99.0612 18.14C99.0612 15.756 98.1492 14.924 95.7972 14.924C93.4452 14.924 92.5812 15.756 92.5812 18.14C92.5812 20.524 93.4452 21.356 95.7972 21.356ZM106.828 23.5H104.428V12.78H106.988L110.828 17.852L112.3 20.108H112.476L112.364 17.948V12.78H114.764V23.5H112.204L108.252 18.38L106.892 16.364H106.732L106.828 18.332V23.5ZM123.317 23.66C119.765 23.66 117.557 21.484 117.557 18.14C117.557 14.796 119.765 12.62 123.317 12.62C126.949 12.62 129.141 14.796 129.141 18.14C129.141 21.484 126.949 23.66 123.317 23.66ZM123.317 21.356C125.669 21.356 126.581 20.524 126.581 18.14C126.581 15.756 125.669 14.924 123.317 14.924C120.965 14.924 120.101 15.756 120.101 18.14C120.101 20.524 120.965 21.356 123.317 21.356Z" fill="#F5F5F5"/>
</svg>
