<svg width="155" height="36" viewBox="0 0 155 36" fill="none" xmlns="http://www.w3.org/2000/svg">
<rect y="15" width="6" height="6" rx="3" fill="#E44A19"/>
<path d="M15.6287 23.66C12.3807 23.66 10.5567 22.38 10.5567 19.884V19.788H12.9567V20.076C12.9567 21.068 13.4527 21.468 15.6287 21.468C17.5487 21.468 17.9967 21.18 17.9967 20.46C17.9967 19.804 17.6287 19.564 16.5247 19.372L13.5167 18.94C11.5967 18.636 10.4607 17.676 10.4607 15.932C10.4607 14.316 11.7727 12.62 15.3727 12.62C18.6687 12.62 20.2047 14.14 20.2047 16.396V16.492H17.7887V16.268C17.7887 15.244 17.2607 14.812 15.1327 14.812C13.4047 14.812 12.8767 15.148 12.8767 15.836C12.8767 16.46 13.2287 16.684 14.1247 16.844L17.1327 17.324C19.5327 17.708 20.3967 18.876 20.3967 20.348C20.3967 22.092 19.0367 23.66 15.6287 23.66ZM29.4861 23.5H27.0701V19.948L22.3181 12.78H25.2781L27.3261 15.916L28.2221 17.356H28.3981L29.2941 15.916L31.3421 12.78H34.3181L29.4861 19.964V23.5ZM38.9347 23.5H36.5347V12.78H39.0947L42.9347 17.852L44.4067 20.108H44.5827L44.4707 17.948V12.78H46.8707V23.5H44.3107L40.3587 18.38L38.9987 16.364H38.8387L38.9347 18.332V23.5ZM55.3921 23.66C51.8561 23.66 49.6641 21.484 49.6641 18.14C49.6641 14.796 51.8561 12.62 55.3921 12.62C58.7201 12.62 60.8641 14.284 60.8641 17.004V17.244H58.1921V17.004C58.1921 15.596 57.3921 14.924 55.4401 14.924C53.0881 14.924 52.2081 15.756 52.2081 18.14C52.2081 20.524 53.0881 21.356 55.4401 21.356C57.3921 21.356 58.1921 20.684 58.1921 19.276V19.036H60.8641V19.276C60.8641 21.996 58.7361 23.66 55.3921 23.66ZM66.0641 23.5H63.6641V12.78H66.0641V17.036H71.6641V12.78H74.0641V23.5H71.6641V19.196H66.0641V23.5ZM79.5116 23.5H77.1116V12.78H83.0316C85.6716 12.78 87.1756 13.948 87.1756 15.996C87.1756 17.74 86.1676 18.78 84.1516 18.972V19.1C85.1116 19.356 85.4796 19.868 85.8796 20.62L87.4316 23.5H84.6476L83.1756 20.716C82.7436 19.884 82.3436 19.612 81.0956 19.612H79.5116V23.5ZM79.5116 14.94V17.804H83.0156C84.1516 17.804 84.6636 17.484 84.6636 16.364C84.6636 15.308 84.1516 14.94 83.0156 14.94H79.5116ZM95.4697 23.66C91.9177 23.66 89.7097 21.484 89.7097 18.14C89.7097 14.796 91.9177 12.62 95.4697 12.62C99.1017 12.62 101.294 14.796 101.294 18.14C101.294 21.484 99.1017 23.66 95.4697 23.66ZM95.4697 21.356C97.8217 21.356 98.7337 20.524 98.7337 18.14C98.7337 15.756 97.8217 14.924 95.4697 14.924C93.1177 14.924 92.2537 15.756 92.2537 18.14C92.2537 20.524 93.1177 21.356 95.4697 21.356ZM106.5 23.5H104.1V12.78H106.66L110.5 17.852L111.972 20.108H112.148L112.036 17.948V12.78H114.436V23.5H111.876L107.924 18.38L106.564 16.364H106.404L106.5 18.332V23.5ZM122.99 23.66C119.438 23.66 117.23 21.484 117.23 18.14C117.23 14.796 119.438 12.62 122.99 12.62C126.622 12.62 128.814 14.796 128.814 18.14C128.814 21.484 126.622 23.66 122.99 23.66ZM122.99 21.356C125.342 21.356 126.254 20.524 126.254 18.14C126.254 15.756 125.342 14.924 122.99 14.924C120.638 14.924 119.774 15.756 119.774 18.14C119.774 20.524 120.638 21.356 122.99 21.356ZM134.548 23.5H131.46V20.7H134.548V23.5ZM139.395 23.5H136.707L141.395 12.78H144.819L149.539 23.5H146.787L145.779 21.132H140.419L139.395 23.5ZM142.355 16.636L141.347 18.972H144.851L143.843 16.636L143.187 14.972H143.011L142.355 16.636ZM154.259 23.5H151.859V12.78H154.259V23.5Z" fill="#F5F5F5"/>
</svg>
