<svg width="133" height="36" viewBox="0 0 133 36" fill="none" xmlns="http://www.w3.org/2000/svg">
<rect y="15" width="6" height="6" rx="3" fill="#E44A19"/>
<path d="M16.4061 23.66C12.8701 23.66 10.6781 21.484 10.6781 18.14C10.6781 14.796 12.8701 12.62 16.4061 12.62C19.7341 12.62 21.8781 14.284 21.8781 17.004V17.244H19.2061V17.004C19.2061 15.596 18.4061 14.924 16.4541 14.924C14.1021 14.924 13.2221 15.756 13.2221 18.14C13.2221 20.524 14.1021 21.356 16.4541 21.356C18.4061 21.356 19.2061 20.684 19.2061 19.276V19.036H21.8781V19.276C21.8781 21.996 19.7501 23.66 16.4061 23.66ZM30.1981 23.66C26.6461 23.66 24.4381 21.484 24.4381 18.14C24.4381 14.796 26.6461 12.62 30.1981 12.62C33.8301 12.62 36.0221 14.796 36.0221 18.14C36.0221 21.484 33.8301 23.66 30.1981 23.66ZM30.1981 21.356C32.5501 21.356 33.4621 20.524 33.4621 18.14C33.4621 15.756 32.5501 14.924 30.1981 14.924C27.8461 14.924 26.9821 15.756 26.9821 18.14C26.9821 20.524 27.8461 21.356 30.1981 21.356ZM41.2288 23.5H38.8288V12.78H41.3888L45.2288 17.852L46.7008 20.108H46.8768L46.7648 17.948V12.78H49.1648V23.5H46.6048L42.6528 18.38L41.2928 16.364H41.1328L41.2288 18.332V23.5ZM57.0621 23.66C53.8141 23.66 51.9901 22.38 51.9901 19.884V19.788H54.3901V20.076C54.3901 21.068 54.8861 21.468 57.0621 21.468C58.9821 21.468 59.4301 21.18 59.4301 20.46C59.4301 19.804 59.0621 19.564 57.9581 19.372L54.9501 18.94C53.0301 18.636 51.8941 17.676 51.8941 15.932C51.8941 14.316 53.2061 12.62 56.8061 12.62C60.1021 12.62 61.6381 14.14 61.6381 16.396V16.492H59.2221V16.268C59.2221 15.244 58.6941 14.812 56.5661 14.812C54.8381 14.812 54.3101 15.148 54.3101 15.836C54.3101 16.46 54.6621 16.684 55.5581 16.844L58.5661 17.324C60.9661 17.708 61.8301 18.876 61.8301 20.348C61.8301 22.092 60.4701 23.66 57.0621 23.66ZM73.6395 23.5H64.5675V12.78H73.6395V14.94H66.9675V17.036H73.3995V19.18H66.9675V21.34H73.6395V23.5ZM86.3078 25.756H83.1878L81.5238 23.644C78.2438 23.452 76.2438 21.324 76.2438 18.14C76.2438 14.796 78.4518 12.62 82.0038 12.62C85.6358 12.62 87.8278 14.796 87.8278 18.14C87.8278 20.748 86.4998 22.652 84.1798 23.356L86.3078 25.756ZM82.0038 21.356C84.3558 21.356 85.2678 20.524 85.2678 18.14C85.2678 15.756 84.3558 14.924 82.0038 14.924C79.6518 14.924 78.7878 15.756 78.7878 18.14C78.7878 20.524 79.6518 21.356 82.0038 21.356ZM95.8184 23.66C92.3304 23.66 90.5544 21.9 90.5544 19.02V12.78H92.9544V18.844C92.9544 20.668 93.6424 21.324 95.8184 21.324C98.0104 21.324 98.6824 20.668 98.6824 18.844V12.78H101.082V19.02C101.082 21.9 99.3224 23.66 95.8184 23.66ZM106.451 23.5H104.051V12.78H106.451V23.5ZM112.395 23.5H109.307V20.7H112.395V23.5ZM117.242 23.5H114.554L119.242 12.78H122.666L127.386 23.5H124.634L123.626 21.132H118.266L117.242 23.5ZM120.202 16.636L119.194 18.972H122.698L121.69 16.636L121.034 14.972H120.858L120.202 16.636ZM132.106 23.5H129.706V12.78H132.106V23.5Z" fill="#F5F5F5"/>
</svg>
