<svg width="148" height="25" viewBox="0 0 148 25" fill="none" xmlns="http://www.w3.org/2000/svg">
<g clip-path="url(#clip0_2065_179)">
<path d="M10.0383 4.56114C10.2091 4.15049 10.7909 4.15049 10.9617 4.56114L13.0278 9.52861C13.0998 9.70173 13.2626 9.82002 13.4495 9.835L18.8123 10.2649C19.2556 10.3005 19.4354 10.8537 19.0976 11.1431L15.0117 14.6431C14.8693 14.765 14.8071 14.9564 14.8506 15.1388L16.0989 20.372C16.2021 20.8046 15.7315 21.1465 15.3519 20.9147L10.7606 18.1104C10.6006 18.0126 10.3994 18.0126 10.2394 18.1104L5.64806 20.9147C5.26851 21.1465 4.79788 20.8046 4.90108 20.372L6.14939 15.1388C6.19289 14.9564 6.1307 14.765 5.98831 14.6431L1.90241 11.1431C1.56464 10.8537 1.74441 10.3005 2.18773 10.2649L7.55054 9.835C7.73744 9.82002 7.90024 9.70173 7.97225 9.52862L10.0383 4.56114Z" fill="#F2F4F7"/>
<g clip-path="url(#clip1_2065_179)">
<path d="M10.0383 4.56114C10.2091 4.15049 10.7909 4.15049 10.9617 4.56114L13.0278 9.52861C13.0998 9.70173 13.2626 9.82002 13.4495 9.835L18.8123 10.2649C19.2556 10.3005 19.4354 10.8537 19.0976 11.1431L15.0117 14.6431C14.8693 14.765 14.8071 14.9564 14.8506 15.1388L16.0989 20.372C16.2021 20.8046 15.7315 21.1465 15.3519 20.9147L10.7606 18.1104C10.6006 18.0126 10.3994 18.0126 10.2394 18.1104L5.64806 20.9147C5.26851 21.1465 4.79788 20.8046 4.90108 20.372L6.14939 15.1388C6.19289 14.9564 6.1307 14.765 5.98831 14.6431L1.90241 11.1431C1.56464 10.8537 1.74441 10.3005 2.18773 10.2649L7.55054 9.835C7.73744 9.82002 7.90024 9.70173 7.97225 9.52862L10.0383 4.56114Z" fill="#FEC84B"/>
</g>
</g>
<g clip-path="url(#clip2_2065_179)">
<path d="M34.0383 4.56114C34.2091 4.15049 34.7909 4.15049 34.9617 4.56114L37.0278 9.52861C37.0998 9.70173 37.2626 9.82002 37.4495 9.835L42.8123 10.2649C43.2556 10.3005 43.4354 10.8537 43.0976 11.1431L39.0117 14.6431C38.8693 14.765 38.8071 14.9564 38.8506 15.1388L40.0989 20.372C40.2021 20.8046 39.7315 21.1465 39.3519 20.9147L34.7606 18.1104C34.6006 18.0126 34.3994 18.0126 34.2394 18.1104L29.6481 20.9147C29.2685 21.1465 28.7979 20.8046 28.9011 20.372L30.1494 15.1388C30.1929 14.9564 30.1307 14.765 29.9883 14.6431L25.9024 11.1431C25.5646 10.8537 25.7444 10.3005 26.1877 10.2649L31.5505 9.835C31.7374 9.82002 31.9002 9.70173 31.9722 9.52862L34.0383 4.56114Z" fill="#F2F4F7"/>
<g clip-path="url(#clip3_2065_179)">
<path d="M34.0383 4.56114C34.2091 4.15049 34.7909 4.15049 34.9617 4.56114L37.0278 9.52861C37.0998 9.70173 37.2626 9.82002 37.4495 9.835L42.8123 10.2649C43.2556 10.3005 43.4354 10.8537 43.0976 11.1431L39.0117 14.6431C38.8693 14.765 38.8071 14.9564 38.8506 15.1388L40.0989 20.372C40.2021 20.8046 39.7315 21.1465 39.3519 20.9147L34.7606 18.1104C34.6006 18.0126 34.3994 18.0126 34.2394 18.1104L29.6481 20.9147C29.2685 21.1465 28.7979 20.8046 28.9011 20.372L30.1494 15.1388C30.1929 14.9564 30.1307 14.765 29.9883 14.6431L25.9024 11.1431C25.5646 10.8537 25.7444 10.3005 26.1877 10.2649L31.5505 9.835C31.7374 9.82002 31.9002 9.70173 31.9722 9.52862L34.0383 4.56114Z" fill="#FEC84B"/>
</g>
</g>
<g clip-path="url(#clip4_2065_179)">
<path d="M58.0383 4.56114C58.2091 4.15049 58.7909 4.15049 58.9617 4.56114L61.0278 9.52861C61.0998 9.70173 61.2626 9.82002 61.4495 9.835L66.8123 10.2649C67.2556 10.3005 67.4354 10.8537 67.0976 11.1431L63.0117 14.6431C62.8693 14.765 62.8071 14.9564 62.8506 15.1388L64.0989 20.372C64.2021 20.8046 63.7315 21.1465 63.3519 20.9147L58.7606 18.1104C58.6006 18.0126 58.3994 18.0126 58.2394 18.1104L53.6481 20.9147C53.2685 21.1465 52.7979 20.8046 52.9011 20.372L54.1494 15.1388C54.1929 14.9564 54.1307 14.765 53.9883 14.6431L49.9024 11.1431C49.5646 10.8537 49.7444 10.3005 50.1877 10.2649L55.5505 9.835C55.7374 9.82002 55.9002 9.70173 55.9722 9.52862L58.0383 4.56114Z" fill="#F2F4F7"/>
<g clip-path="url(#clip5_2065_179)">
<path d="M58.0383 4.56114C58.2091 4.15049 58.7909 4.15049 58.9617 4.56114L61.0278 9.52861C61.0998 9.70173 61.2626 9.82002 61.4495 9.835L66.8123 10.2649C67.2556 10.3005 67.4354 10.8537 67.0976 11.1431L63.0117 14.6431C62.8693 14.765 62.8071 14.9564 62.8506 15.1388L64.0989 20.372C64.2021 20.8046 63.7315 21.1465 63.3519 20.9147L58.7606 18.1104C58.6006 18.0126 58.3994 18.0126 58.2394 18.1104L53.6481 20.9147C53.2685 21.1465 52.7979 20.8046 52.9011 20.372L54.1494 15.1388C54.1929 14.9564 54.1307 14.765 53.9883 14.6431L49.9024 11.1431C49.5646 10.8537 49.7444 10.3005 50.1877 10.2649L55.5505 9.835C55.7374 9.82002 55.9002 9.70173 55.9722 9.52862L58.0383 4.56114Z" fill="#FEC84B"/>
</g>
</g>
<g clip-path="url(#clip6_2065_179)">
<path d="M82.0383 4.56114C82.2091 4.15049 82.7909 4.15049 82.9617 4.56114L85.0278 9.52861C85.0998 9.70173 85.2626 9.82002 85.4495 9.835L90.8123 10.2649C91.2556 10.3005 91.4354 10.8537 91.0976 11.1431L87.0117 14.6431C86.8693 14.765 86.8071 14.9564 86.8506 15.1388L88.0989 20.372C88.2021 20.8046 87.7315 21.1465 87.3519 20.9147L82.7606 18.1104C82.6006 18.0126 82.3994 18.0126 82.2394 18.1104L77.6481 20.9147C77.2685 21.1465 76.7979 20.8046 76.9011 20.372L78.1494 15.1388C78.1929 14.9564 78.1307 14.765 77.9883 14.6431L73.9024 11.1431C73.5646 10.8537 73.7444 10.3005 74.1877 10.2649L79.5505 9.835C79.7374 9.82002 79.9002 9.70173 79.9722 9.52862L82.0383 4.56114Z" fill="#F2F4F7"/>
<g clip-path="url(#clip7_2065_179)">
<path d="M82.0383 4.56114C82.2091 4.15049 82.7909 4.15049 82.9617 4.56114L85.0278 9.52861C85.0998 9.70173 85.2626 9.82002 85.4495 9.835L90.8123 10.2649C91.2556 10.3005 91.4354 10.8537 91.0976 11.1431L87.0117 14.6431C86.8693 14.765 86.8071 14.9564 86.8506 15.1388L88.0989 20.372C88.2021 20.8046 87.7315 21.1465 87.3519 20.9147L82.7606 18.1104C82.6006 18.0126 82.3994 18.0126 82.2394 18.1104L77.6481 20.9147C77.2685 21.1465 76.7979 20.8046 76.9011 20.372L78.1494 15.1388C78.1929 14.9564 78.1307 14.765 77.9883 14.6431L73.9024 11.1431C73.5646 10.8537 73.7444 10.3005 74.1877 10.2649L79.5505 9.835C79.7374 9.82002 79.9002 9.70173 79.9722 9.52862L82.0383 4.56114Z" fill="#FEC84B"/>
</g>
</g>
<g clip-path="url(#clip8_2065_179)">
<path d="M106.038 4.56114C106.209 4.15049 106.791 4.15049 106.962 4.56114L109.028 9.52861C109.1 9.70173 109.263 9.82002 109.449 9.835L114.812 10.2649C115.256 10.3005 115.435 10.8537 115.098 11.1431L111.012 14.6431C110.869 14.765 110.807 14.9564 110.851 15.1388L112.099 20.372C112.202 20.8046 111.731 21.1465 111.352 20.9147L106.761 18.1104C106.601 18.0126 106.399 18.0126 106.239 18.1104L101.648 20.9147C101.269 21.1465 100.798 20.8046 100.901 20.372L102.149 15.1388C102.193 14.9564 102.131 14.765 101.988 14.6431L97.9024 11.1431C97.5646 10.8537 97.7444 10.3005 98.1877 10.2649L103.551 9.835C103.737 9.82002 103.9 9.70173 103.972 9.52862L106.038 4.56114Z" fill="#EDEDED"/>
<g clip-path="url(#clip9_2065_179)">
<path d="M106.038 4.56114C106.209 4.15049 106.791 4.15049 106.962 4.56114L109.028 9.52861C109.1 9.70173 109.263 9.82002 109.449 9.835L114.812 10.2649C115.256 10.3005 115.435 10.8537 115.098 11.1431L111.012 14.6431C110.869 14.765 110.807 14.9564 110.851 15.1388L112.099 20.372C112.202 20.8046 111.731 21.1465 111.352 20.9147L106.761 18.1104C106.601 18.0126 106.399 18.0126 106.239 18.1104L101.648 20.9147C101.269 21.1465 100.798 20.8046 100.901 20.372L102.149 15.1388C102.193 14.9564 102.131 14.765 101.988 14.6431L97.9024 11.1431C97.5646 10.8537 97.7444 10.3005 98.1877 10.2649L103.551 9.835C103.737 9.82002 103.9 9.70173 103.972 9.52862L106.038 4.56114Z" fill="#FEC84B"/>
</g>
</g>
<path d="M130.756 17.9512V15.5512H125.076V14.5112L130.516 6.75117H132.084V14.3672H133.748V15.5512H132.084V17.9512H130.756ZM126.564 14.3672H130.82V8.23917L126.564 14.3672ZM135.756 18.0312C135.489 18.0312 135.265 17.9458 135.084 17.7752C134.913 17.5938 134.828 17.3752 134.828 17.1192C134.828 16.8632 134.913 16.6498 135.084 16.4792C135.265 16.2978 135.489 16.2072 135.756 16.2072C136.012 16.2072 136.225 16.2978 136.396 16.4792C136.577 16.6498 136.668 16.8632 136.668 17.1192C136.668 17.3752 136.577 17.5938 136.396 17.7752C136.225 17.9458 136.012 18.0312 135.756 18.0312ZM142.305 18.1432C141.537 18.1432 140.87 18.0045 140.305 17.7272C139.739 17.4498 139.286 17.0712 138.945 16.5912C138.614 16.1005 138.411 15.5458 138.337 14.9272H139.649C139.777 15.5458 140.075 16.0472 140.545 16.4312C141.014 16.8045 141.606 16.9912 142.321 16.9912C142.854 16.9912 143.313 16.8685 143.697 16.6232C144.081 16.3672 144.374 16.0258 144.577 15.5992C144.79 15.1725 144.897 14.6978 144.897 14.1752C144.897 13.3432 144.662 12.6712 144.193 12.1592C143.723 11.6472 143.115 11.3912 142.369 11.3912C141.75 11.3912 141.222 11.5298 140.785 11.8072C140.347 12.0845 140.027 12.4472 139.825 12.8952H138.545L139.505 6.75117H145.377V7.91917H140.545L139.889 11.3272C140.145 11.0178 140.497 10.7618 140.945 10.5592C141.403 10.3565 141.926 10.2552 142.513 10.2552C143.249 10.2552 143.889 10.4258 144.433 10.7672C144.987 11.1085 145.419 11.5725 145.729 12.1592C146.038 12.7458 146.193 13.4125 146.193 14.1592C146.193 14.8738 146.038 15.5352 145.729 16.1432C145.43 16.7512 144.987 17.2365 144.401 17.5992C143.825 17.9618 143.126 18.1432 142.305 18.1432Z" fill="#737373"/>
<defs>
<clipPath id="clip0_2065_179">
<rect width="20" height="20" fill="white" transform="translate(0.5 2.95117)"/>
</clipPath>
<clipPath id="clip1_2065_179">
<rect width="20" height="20" fill="white" transform="translate(0.5 2.95117)"/>
</clipPath>
<clipPath id="clip2_2065_179">
<rect width="20" height="20" fill="white" transform="translate(24.5 2.95117)"/>
</clipPath>
<clipPath id="clip3_2065_179">
<rect width="20" height="20" fill="white" transform="translate(24.5 2.95117)"/>
</clipPath>
<clipPath id="clip4_2065_179">
<rect width="20" height="20" fill="white" transform="translate(48.5 2.95117)"/>
</clipPath>
<clipPath id="clip5_2065_179">
<rect width="20" height="20" fill="white" transform="translate(48.5 2.95117)"/>
</clipPath>
<clipPath id="clip6_2065_179">
<rect width="20" height="20" fill="white" transform="translate(72.5 2.95117)"/>
</clipPath>
<clipPath id="clip7_2065_179">
<rect width="20" height="20" fill="white" transform="translate(72.5 2.95117)"/>
</clipPath>
<clipPath id="clip8_2065_179">
<rect width="20" height="20" fill="white" transform="translate(96.5 2.95117)"/>
</clipPath>
<clipPath id="clip9_2065_179">
<rect width="10" height="20" fill="white" transform="translate(96.5 2.95117)"/>
</clipPath>
</defs>
</svg>
